<svg xmlns="http://www.w3.org/2000/svg" width="76.562" height="57.188" viewBox="0 0 76.562 57.188">
  <defs>
    <style>
      .cls-1 {
        fill: #ffc400;
        fill-rule: evenodd;
      }
    </style>
  </defs>
  <path id="Composite_Path" data-name="Composite Path" class="cls-1" d="M995.681,102.716a6.743,6.743,0,0,0-12.384.205l-23.214-8.77a8.723,8.723,0,0,0-7.535-10.646l0.171-8.89a6.744,6.744,0,1,0-2-.038L950.55,83.5a8.752,8.752,0,0,0-6.96,12.293,8.66,8.66,0,0,0,.443.847L931.17,106.79a6.742,6.742,0,1,0,1.443,2.052c-0.071-.156-0.154-0.3-0.234-0.456l12.867-10.153a8.742,8.742,0,0,0,14.176-2.193l23.39,8.835A6.748,6.748,0,1,0,995.681,102.716Zm-41.337-4.375a6.749,6.749,0,1,1,3.373-8.928A6.755,6.755,0,0,1,954.344,98.341Z" transform="translate(-919.719 -61.188)"/>
</svg>
